<svg width="16" height="20" viewBox="0 0 16 20" fill="none" xmlns="http://www.w3.org/2000/svg">
<path d="M15.2087 8.10437C15.2087 13.63 8.10437 18.3662 8.10437 18.3662C8.10437 18.3662 1 13.63 1 8.10437C1 6.22017 1.74849 4.41315 3.08082 3.08082C4.41315 1.74849 6.22017 1 8.10437 1C9.98856 1 11.7956 1.74849 13.1279 3.08082C14.4602 4.41315 15.2087 6.22017 15.2087 8.10437Z" stroke="white" stroke-width="1.57875" stroke-linecap="round" stroke-linejoin="round"/>
<path d="M8.10437 10.4726C9.41224 10.4726 10.4725 9.41233 10.4725 8.10445C10.4725 6.79657 9.41224 5.73633 8.10437 5.73633C6.79649 5.73633 5.73624 6.79657 5.73624 8.10445C5.73624 9.41233 6.79649 10.4726 8.10437 10.4726Z" stroke="white" stroke-width="1.57875" stroke-linecap="round" stroke-linejoin="round"/>
</svg>
