<svg width="18" height="18" viewBox="0 0 18 18" fill="none" xmlns="http://www.w3.org/2000/svg">
<path d="M16.6992 12.7775V15.1457C16.7001 15.3655 16.655 15.5831 16.567 15.7845C16.4789 15.986 16.3497 16.1668 16.1877 16.3154C16.0257 16.464 15.8345 16.5772 15.6262 16.6476C15.418 16.718 15.1973 16.7442 14.9783 16.7244C12.5493 16.4605 10.216 15.6305 8.16603 14.301C6.25877 13.0891 4.64174 11.4721 3.42979 9.56479C2.09573 7.50547 1.26551 5.16086 1.00641 2.72091C0.986681 2.50262 1.01262 2.28262 1.08258 2.07491C1.15254 1.8672 1.26498 1.67632 1.41275 1.51445C1.56052 1.35257 1.74037 1.22324 1.94086 1.13468C2.14135 1.04612 2.35808 1.00028 2.57726 1.00008H4.94538C5.32847 0.996306 5.69986 1.13196 5.99033 1.38176C6.28079 1.63157 6.47052 1.97846 6.52413 2.3578C6.62409 3.11565 6.80945 3.85976 7.07669 4.57594C7.1829 4.85848 7.20589 5.16554 7.14293 5.46074C7.07997 5.75593 6.93371 6.0269 6.72148 6.24152L5.71897 7.24403C6.84269 9.22026 8.47898 10.8566 10.4552 11.9803L11.4577 10.9778C11.6723 10.7655 11.9433 10.6193 12.2385 10.5563C12.5337 10.4934 12.8408 10.5163 13.1233 10.6225C13.8395 10.8898 14.5836 11.0752 15.3414 11.1751C15.7249 11.2292 16.0751 11.4223 16.3254 11.7178C16.5758 12.0133 16.7088 12.3904 16.6992 12.7775Z" stroke="white" stroke-width="1.57875" stroke-linecap="round" stroke-linejoin="round"/>
</svg>
