<svg width="59" height="63" viewBox="0 0 59 63" fill="none" xmlns="http://www.w3.org/2000/svg">
<path d="M19.0552 42.2352H16.179V62.9743H19.0552V42.2352Z" fill="#001233"/>
<path d="M31.0142 38.7535H28.138V62.9744H31.0142V38.7535Z" fill="#001233"/>
<path d="M7.09613 55.254H4.37128V62.9744H7.09613V55.254Z" fill="#001233"/>
<path d="M42.822 29.9734H39.9458V62.9744H42.822V29.9734Z" fill="#001233"/>
<path d="M54.6298 22.1016H51.9049V62.9743H54.6298V22.1016Z" fill="#001233"/>
<path d="M58.5505 0.408728C58.2478 0.151381 57.8693 0 57.4606 0H47.091C46.2584 0 45.5772 0.681213 45.5772 1.51381C45.5772 2.3464 46.2584 3.02761 47.091 3.02761L53.782 3.01247L37.4178 19.3919L31.6805 13.6243C31.3928 13.3366 31.0144 13.1701 30.6057 13.155C30.1969 13.1701 29.8185 13.3366 29.5309 13.6243L0.465787 42.7196C-0.139736 43.2949 -0.154874 44.2637 0.420372 44.8692C0.995619 45.4747 1.96445 45.4899 2.56998 44.9146C2.58512 44.8995 2.60025 44.8844 2.61539 44.8844L30.6208 16.8789L36.3581 22.6011C36.6458 22.8736 37.0242 23.025 37.4329 23.025C37.8265 23.025 38.2201 22.8736 38.5077 22.6011L55.9618 5.14694L55.9466 11.8228C55.9466 12.6554 56.6127 13.3215 57.4453 13.3215H57.4604C58.293 13.3366 58.9591 12.6706 58.9742 11.838C58.9742 11.838 58.9742 11.838 58.9742 11.8228L58.9894 1.46839C58.9895 1.0748 58.823 0.696351 58.5505 0.408728Z" fill="#001233"/>
</svg>
