<svg width="21" height="15" viewBox="0 0 21 15" fill="none" xmlns="http://www.w3.org/2000/svg">
<path d="M9.21422 4.16153C9.21422 1.86713 7.56094 0.000732422 5.52853 0.000732422H0V14.5635H5.52853C7.56094 14.5635 9.21422 12.6971 9.21422 10.4027C9.21422 9.16098 8.72927 8.0452 7.96238 7.28212C8.72927 6.51904 9.21422 5.40326 9.21422 4.16153ZM7.37137 10.4027C7.37137 11.5499 6.54473 12.4831 5.52853 12.4831H1.84284V8.32232H5.52853C6.54473 8.32232 7.37137 9.25552 7.37137 10.4027ZM1.84284 6.24192V2.08113H5.52853C6.54473 2.08113 7.37137 3.01433 7.37137 4.16153C7.37137 5.30872 6.54473 6.24192 5.52853 6.24192H1.84284Z" fill="white"/>
<path d="M15.6642 4.16064C13.1238 4.16064 11.0571 6.49378 11.0571 9.36164C11.0571 12.2295 13.1238 14.5626 15.6642 14.5626C17.3038 14.5626 18.8328 13.5666 19.6544 11.9629L18.0592 10.9211C17.5659 11.8841 16.648 12.4822 15.6642 12.4822C14.4628 12.4822 13.4382 11.6127 13.0579 10.4018H20.2713V9.36164C20.2713 6.49378 18.2046 4.16064 15.6642 4.16064ZM13.0579 8.32144C13.4382 7.11058 14.4628 6.24104 15.6642 6.24104C16.8657 6.24104 17.8903 7.11058 18.2706 8.32144H13.0579Z" fill="white"/>
<path d="M11.9785 0H19.3499V2.0804H11.9785V0Z" fill="white"/>
</svg>
