<svg width="58" height="57" viewBox="0 0 58 57" fill="none" xmlns="http://www.w3.org/2000/svg">
<path d="M18.5018 44.337C15.1576 44.337 12.4467 47.048 12.4467 50.3921C12.4467 53.7363 15.1577 56.4472 18.5018 56.4472C21.846 56.4472 24.5569 53.7362 24.5569 50.3921C24.557 47.048 21.846 44.337 18.5018 44.337ZM18.5018 53.7562C16.6439 53.7562 15.1379 52.2501 15.1379 50.3922C15.1379 48.5344 16.6439 47.0283 18.5018 47.0283C20.3597 47.0283 21.8657 48.5344 21.8657 50.3922C21.8658 52.2501 20.3597 53.7562 18.5018 53.7562Z" fill="#001233"/>
<path d="M44.068 44.337C40.7238 44.337 38.0129 47.048 38.0129 50.3921C38.0129 53.7363 40.724 56.4472 44.068 56.4472C47.4121 56.4472 50.1231 53.7362 50.1231 50.3921C50.1231 47.048 47.4122 44.337 44.068 44.337ZM44.068 53.7562C42.2102 53.7562 40.7041 52.2501 40.7041 50.3922C40.7041 48.5344 42.2102 47.0283 44.068 47.0283C45.9259 47.0283 47.4319 48.5344 47.4319 50.3922C47.4321 52.2501 45.9259 53.7562 44.068 53.7562Z" fill="#001233"/>
<path d="M57.7256 9.01553C57.4454 8.70943 57.062 8.51781 56.6491 8.47724L12.8504 7.87174L11.6394 4.17134C10.7862 1.69766 8.46978 0.027687 5.85329 0H1.34559C0.602418 0 0 0.602418 0 1.34559C0 2.08876 0.602418 2.69118 1.34559 2.69118H5.85329C7.31632 2.7235 8.6046 3.66293 9.08275 5.04599L17.6272 30.814L16.9545 32.3613C16.2041 34.2963 16.4295 36.4742 17.56 38.2146C18.6797 39.924 20.5635 40.9789 22.606 41.0404H48.7777C49.5208 41.0404 50.1233 40.438 50.1233 39.6948C50.1233 38.9516 49.5208 38.3492 48.7777 38.3492H22.6059C21.4524 38.3204 20.3906 37.7136 19.7801 36.7345C19.1764 35.7674 19.0524 34.5759 19.4437 33.505L19.982 32.294L48.3066 29.3337C51.4178 28.991 53.9772 26.7281 54.6982 23.6822L57.9276 10.1591C58.0732 9.76965 57.9959 9.33168 57.7256 9.01553ZM52.0742 23.0768C51.6374 25.0375 49.9727 26.4838 47.9702 26.6426L19.982 29.5356L13.725 10.5629L54.9672 11.1684L52.0742 23.0768Z" fill="#001233"/>
</svg>
