<svg width="59" height="60" viewBox="0 0 59 60" fill="none" xmlns="http://www.w3.org/2000/svg">
<path d="M0 0V52.3284H18.7723V56.07H15.3411V59.8055H43.1464V56.07H39.7153V52.3284H58.4877V0H0ZM36.2881 56.07H22.1995V52.3284H36.2882V56.07H36.2881ZM55.0605 48.5929H3.42713V41.1127H55.0604V48.5929H55.0605ZM55.0605 37.3771H3.42713V3.73569H55.0604V37.3771H55.0605Z" fill="#001233"/>
<path d="M23.2972 13.8045L20.8738 11.1631L12.2561 20.5564L20.8738 29.9495L23.2972 27.308L17.1028 20.5564L23.2972 13.8045Z" fill="#001233"/>
<path d="M37.6138 11.1631L35.1905 13.8045L41.3848 20.5564L35.1905 27.308L37.6138 29.9495L46.2314 20.5564L37.6138 11.1631Z" fill="#001233"/>
<path d="M29.5524 9.29256L25.5739 31.093L28.9353 31.8219L32.9138 10.0214L29.5524 9.29256Z" fill="#001233"/>
</svg>
