<svg width="25" height="25" viewBox="0 0 25 25" fill="none" xmlns="http://www.w3.org/2000/svg">
<path d="M0 24.2606H6.57659V8.76904H0V24.2606ZM2.1922 10.9612H4.3844V22.0684H2.1922V10.9612Z" fill="white"/>
<path d="M17.5439 8.76904C17.5419 8.76904 17.5396 8.76904 17.5376 8.76904C16.7797 8.76904 16.0416 8.89578 15.3454 9.14183V8.76904H8.7688V24.2606H15.3454V16.4417C15.3454 15.8375 15.8372 15.3456 16.4415 15.3456C17.0458 15.3456 17.5376 15.8375 17.5376 16.4417V24.2606H24.1142V15.6882C24.1142 12.1407 21.2364 8.77247 17.5439 8.76904ZM21.922 22.0684H19.7298V16.4417C19.7298 14.6286 18.2546 13.1534 16.4415 13.1534C14.6284 13.1534 13.1535 14.6286 13.1532 16.4415V22.0684H10.961V10.9612H13.1532V13.1549L14.9075 11.8373C15.6705 11.2641 16.5799 10.9612 17.5376 10.9612H17.5419C19.8751 10.9635 21.922 13.1723 21.922 15.6882V22.0684Z" fill="white"/>
<path d="M0 6.57659H6.57659V0H0V6.57659ZM2.1922 2.1922H4.3844V4.3844H2.1922V2.1922Z" fill="white"/>
</svg>
