<svg width="59" height="72" viewBox="0 0 59 72" fill="none" xmlns="http://www.w3.org/2000/svg">
<path d="M31.0769 34.6742H20.2136C19.6276 34.6742 19.1522 35.1496 19.1522 35.7356C19.1522 36.3222 19.6276 36.7977 20.2136 36.7977H31.0769C31.6634 36.7977 32.1389 36.3222 32.1389 35.7356C32.1383 35.1496 31.6634 34.6742 31.0769 34.6742Z" fill="#001233"/>
<path d="M14.5077 41.6827H30.8644C31.4509 41.6827 31.9258 41.2073 31.9258 40.6212C31.9258 40.0352 31.4509 39.5598 30.8644 39.5598H14.5077C13.9211 39.5598 13.4456 40.0352 13.4456 40.6212C13.4456 41.2073 13.9211 41.6827 14.5077 41.6827Z" fill="#001233"/>
<path d="M32.1383 45.7072C32.1383 45.1206 31.6635 44.6452 31.0769 44.6452H14.5077C13.9211 44.6452 13.4456 45.1206 13.4456 45.7072C13.4456 46.2932 13.9211 46.7687 14.5077 46.7687H31.0769C31.6635 46.7687 32.1383 46.2932 32.1383 45.7072Z" fill="#001233"/>
<path d="M14.5077 49.5269C13.9211 49.5269 13.4456 50.0023 13.4456 50.5884C13.4456 51.1744 13.9211 51.6498 14.5077 51.6498H27.5359C28.1225 51.6498 28.5979 51.1744 28.5979 50.5884C28.5979 50.0018 28.1225 49.5269 27.5359 49.5269H14.5077Z" fill="#001233"/>
<path d="M49.8353 53.1094L42.5327 60.4158L40.3315 58.3351C39.9054 57.9325 39.2333 57.9512 38.8308 58.3773C38.4282 58.8034 38.4474 59.4754 38.8735 59.878L41.8245 62.668C42.0299 62.8614 42.2917 62.9578 42.5535 62.9578C42.8257 62.9578 43.0974 62.8542 43.3044 62.6467L51.3371 54.6107C51.7511 54.1961 51.7511 53.5235 51.3365 53.1094C50.9219 52.6943 50.2499 52.6948 49.8353 53.1094Z" fill="#001233"/>
<path d="M9.80339 13.2988C8.46206 13.2988 7.37048 14.391 7.37048 15.7334V19.925V19.931V24.087C7.37048 25.4294 8.46206 26.5216 9.80339 26.5216H34.9749C36.3162 26.5216 37.4078 25.4294 37.4078 24.087V15.7334C37.4078 14.391 36.3162 13.2988 34.9749 13.2988H9.80339ZM35.2849 24.087C35.2849 24.2557 35.143 24.3981 34.9749 24.3981H9.80339C9.63525 24.3981 9.49339 24.2557 9.49339 24.087V20.6293C12.5003 19.5394 15.3752 20.1517 18.6697 20.8539C21.0588 21.3633 23.6363 21.9126 26.5917 21.9126C28.6341 21.9126 30.8572 21.6503 33.323 20.9311C34.0723 20.7126 34.7328 20.396 35.2849 20.0668V24.087ZM35.2849 15.7334V17.4537C34.8478 17.8388 33.9304 18.542 32.7287 18.8931C27.2079 20.5034 23.0924 19.6259 19.1128 18.7775C15.8725 18.0869 12.7884 17.4302 9.49394 18.3958V15.7334C9.49394 15.5647 9.6358 15.4217 9.80339 15.4217H34.9749C35.143 15.4223 35.2849 15.5647 35.2849 15.7334Z" fill="#001233"/>
<path d="M45.1956 44.3878V31.188C45.1956 30.6014 44.7202 30.126 44.1342 30.126C43.5476 30.126 43.0722 30.6014 43.0722 31.188V44.4885C41.0928 44.7367 39.2421 45.407 37.6165 46.4099V31.8946C37.6165 30.5784 36.5446 29.5082 35.2274 29.5082H25.034C24.4474 29.5082 23.9726 29.9836 23.9726 30.5697C23.9726 31.1557 24.4474 31.6311 25.034 31.6311H35.2274C35.3714 31.6311 35.4936 31.7516 35.4936 31.8946V48.0092C35.4908 48.0169 35.4881 48.024 35.4853 48.0311C33.438 49.9278 31.9696 52.4412 31.3765 55.2734L9.96771 55.2789C9.82366 55.2789 9.70207 55.1568 9.70207 55.0116V31.8946C9.70207 31.7516 9.82366 31.6311 9.96771 31.6311H20.1096C20.6956 31.6311 21.171 31.1557 21.171 30.5697C21.171 29.9836 20.6956 29.5082 20.1096 29.5082H9.96771C8.65047 29.5082 7.57916 30.5784 7.57916 31.8946V55.0116C7.57916 56.33 8.65047 57.4018 9.96771 57.4018H31.1031C31.0916 57.6291 31.0862 57.857 31.0862 58.0864C31.0862 58.9896 31.1749 59.872 31.3419 60.7264H2.12291V9.80613H43.0722V26.0056C43.0722 26.5917 43.5476 27.0671 44.1342 27.0671C44.7202 27.0671 45.1956 26.5917 45.1956 26.0056V6.54892C45.1956 2.9379 42.2599 0 38.6522 0H6.54345C2.93516 0 0 2.9379 0 6.54892V63.0963C0 66.7073 2.93516 69.6452 6.54345 69.6452H37.4335C39.557 71.0019 42.0781 71.789 44.7794 71.789C52.3279 71.789 58.4688 65.6421 58.4688 58.0864C58.4688 50.6683 52.5519 44.6085 45.1956 44.3878ZM2.12291 6.54892C2.12291 4.10835 4.10615 2.12291 6.54345 2.12291H38.6522C41.0895 2.12291 43.0722 4.10835 43.0722 6.54892V7.68322H2.12291V6.54892ZM6.54345 67.5223C4.10561 67.5223 2.12291 65.5369 2.12291 63.0963V62.8493H31.94C32.5918 64.6041 33.593 66.1903 34.8593 67.5223H6.54345ZM44.7794 69.6661C38.3997 69.6661 33.2091 64.4716 33.2091 58.0864C33.2091 51.6996 38.3997 46.5036 44.7794 46.5036C51.1569 46.5036 56.3458 51.7002 56.3458 58.0864C56.3458 64.4716 51.1569 69.6661 44.7794 69.6661Z" fill="#001233"/>
<path d="M8.2156 3.68878H8.18328C7.59724 3.68878 7.12183 4.16419 7.12183 4.75078C7.12183 5.33683 7.59724 5.81224 8.18328 5.81224H8.2156C8.80164 5.81224 9.27705 5.33683 9.27705 4.75078C9.27705 4.16419 8.80164 3.68878 8.2156 3.68878Z" fill="#001233"/>
<path d="M11.8086 3.68878H11.7762C11.1902 3.68878 10.7148 4.16419 10.7148 4.75078C10.7148 5.33683 11.1902 5.81224 11.7762 5.81224H11.8086C12.3946 5.81224 12.87 5.33683 12.87 4.75078C12.87 4.16419 12.3946 3.68878 11.8086 3.68878Z" fill="#001233"/>
</svg>
