<svg width="24" height="24" viewBox="0 0 24 24" fill="none" xmlns="http://www.w3.org/2000/svg">
<path d="M12.0469 24C18.653 24 24 18.6539 24 12.0469C24 5.46405 18.6753 0 12.0469 0C5.44611 0 0 5.44244 0 12.0469C0 18.6812 5.47064 24 12.0469 24ZM5.87732 20.6353C6.74872 17.3145 9.85291 14.6125 13.8234 13.4161C14.7545 16.1631 15.3292 19.0642 15.5037 22.0113C14.4203 22.3881 13.2572 22.5938 12.0469 22.5938C9.7489 22.5938 7.61865 21.8677 5.87732 20.6353ZM16.8745 21.4222C16.6648 18.5546 16.1049 15.7571 15.2036 13.0688C17.6506 12.5709 20.2018 12.6647 22.52 13.2916C22.1012 16.8367 19.9178 19.8488 16.8745 21.4222ZM13.9206 9.81372C16.3065 8.92456 18.8361 7.45001 20.2117 5.31921C21.6628 7.10815 22.5482 9.38086 22.5914 11.8572C20.0967 11.2315 17.361 11.1649 14.7222 11.7274C14.4668 11.0603 14.2086 10.446 13.9206 9.81372ZM19.2151 4.24933C18.0736 6.31403 15.5171 7.73474 13.3079 8.5415C12.0714 6.10913 10.5588 3.89026 8.79034 1.91656C9.8172 1.58569 10.9114 1.40625 12.0469 1.40625C14.8123 1.40625 17.332 2.48621 19.2151 4.24933ZM7.39819 2.47687C9.18073 4.39728 10.7076 6.59674 11.9425 8.98535C8.85846 9.87177 5.24158 10.1746 1.65802 9.74359C2.367 6.54327 4.52106 3.88019 7.39819 2.47687ZM1.4458 11.1346C5.28589 11.6028 9.20398 11.2718 12.5682 10.2664C12.8428 10.8624 13.1003 11.4684 13.3392 12.0839C9.47516 13.2552 5.97491 15.8941 4.69958 19.6688C2.67151 17.7473 1.40625 15.0408 1.40625 12.0469C1.40625 11.7396 1.42017 11.4355 1.4458 11.1346Z" fill="white"/>
</svg>
